<svg xmlns="http://www.w3.org/2000/svg" viewBox="0 0 178 186" width="178" height="186">
	<style>
		tspan { white-space:pre }
		.shp0 { fill: #b2b2b2 } 
		.shp1 { fill: #b52e31 } 
		.shp2 { fill: #e23237 } 
		.shp3 { fill: #f2f2f2 } 
		.shp4 { fill: #b52e31;stroke: #a49d9d;paint-order:stroke fill markers;stroke-width: 6 } 
	</style>
	<path id="Layer" class="shp0" d="M86.69 1L4 30.1L17.07 138.44L86.78 176.75L156.84 137.91L169.91 29.58L86.69 1Z" />
	<path id="Layer" class="shp1" d="M161.66 35.85L86.5 10.21L86.5 167.59L149.49 132.73L161.66 35.85Z" />
	<path id="Layer" class="shp2" d="M13.28 36.31L24.48 133.2L86.49 167.59L86.49 10.21L13.28 36.31Z" />
	<path id="Layer" fill-rule="evenodd" class="shp3" d="M110.51 103.67L64.69 103.67L54.44 129.31L35.37 129.66L86.5 15.93L139.4 129.66L121.73 129.66L110.51 103.67ZM103.92 88.49L86.63 52.4L71.42 88.49L103.92 88.49Z" />
	<path id="Layer" class="shp4" d="M138.43 137.94L138.43 168.59C138.43 176.87 134.46 181 126.55 181L126.55 176.48C131.44 176.48 133.89 173.85 133.89 168.59L133.89 137.94L138.43 137.94Z" />
	<path id="Layer" class="shp4" d="M144.53 178.89L144.53 173.77C148.2 175.37 152.17 176.18 156.43 176.18C162.46 176.18 165.47 173.47 165.47 168.04C165.47 163.43 163.25 161.12 158.81 161.12L154.3 161.12C146.97 161.12 143.3 157.21 143.3 149.37C143.3 141.14 148 137.03 157.39 137.03C161.47 137.03 165.26 137.63 168.78 138.84L168.78 143.96C165.26 142.35 161.47 141.54 157.39 141.54C151.02 141.54 147.84 144.16 147.84 149.38C147.84 153.99 149.99 156.3 154.3 156.3L158.81 156.3C166.27 156.3 170 160.22 170 168.05C170 176.48 165.48 180.69 156.43 180.69C152.17 180.69 148.2 180.09 144.53 178.89L144.53 178.89Z" />
	<path id="Layer" class="shp0" d="M86.5 15.93L86.63 52.4L103.9 88.52L86.53 88.52L86.5 103.65L110.51 103.67L121.73 129.67L139.97 130.01L86.5 15.93Z" />
</svg>