<svg xmlns="http://www.w3.org/2000/svg" viewBox="0 0 142.04 123.35"><defs><style>.cls-1{fill:#fff;}.cls-2{fill:#12a950;}.cls-3{fill:#b8c5c2;}.cls-4{fill:#13994f;}</style></defs><title>Mark White</title><g id="Layer_2" data-name="Layer 2"><g id="Layer_1-2" data-name="Layer 1"><path class="cls-1" d="M42.74,123.35c-7.6,0-13.34-2.3-17.07-6a23.31,23.31,0,0,1-6.88-16.78V83.47c0-4-.72-6.88-2.44-8.6s-4.3-2.58-8-2.58H0V51.06H8.32c3.73,0,6.31-.86,8-2.58s2.44-4.59,2.44-8.61V22.8A23.33,23.33,0,0,1,25.67,6c3.73-3.73,9.47-6,17.07-6H58.69V21.23H52.78c-4,0-6.6.43-8.17,2-1.73,1.72-2.3,4.45-2.3,9.18V47.33C42.31,59,34.57,61,31.84,61.67c2.73.72,10.47,2.73,10.47,14.35V90.93c0,4.74.57,7.46,2.3,9.18,1.57,1.58,4.15,2,8.17,2h5.91v21.23Z"/><path class="cls-1" d="M99.29,0c7.61,0,13.34,2.29,17.07,6a23.3,23.3,0,0,1,6.89,16.78V39.87c0,4,.71,6.89,2.43,8.61s4.31,2.58,8,2.58H142V72.29h-8.32c-3.73,0-6.31.86-8,2.58s-2.43,4.59-2.43,8.6v17.07a23.28,23.28,0,0,1-6.89,16.78c-3.73,3.73-9.46,6-17.07,6h-16V102.12h8c4,0,4.53-.43,6.11-2s2.29-4.44,2.29-9.18V76c0-11.62,7.75-13.63,10.48-14.35C107.47,61,99.72,59,99.72,47.33V32.41c0-4.73-.57-7.46-2.29-9.18s-4.16-2-8.18-2H83.34V0Z"/><path class="cls-2" d="M86,55.29C82.35,39.2,73.73,33.91,72.8,31.89a25,25,0,0,1-2-4,2.05,2.05,0,0,0-.08-.19,4.29,4.29,0,0,1-1.5,3.42c-2.09,1.63-12.8,10.61-13.68,28.9-.81,17,12.32,27.2,14.1,28.5l.2.14c.51-1.16,1-4.49,1.38-9.06.08,3.68.61,7.63,2.44,8.46l.1-.07A22.26,22.26,0,0,0,76,86.17c4.45-4.1,12.85-14.25,10-30.88"/><path class="cls-3" d="M71.19,79.64c-.36,4.56-.88,7.88-1.38,9,0,0,.56,4,1,8.28h1.39a83,83,0,0,1,1.46-8.86c-1.81-.84-2.34-4.78-2.42-8.46"/><path class="cls-4" d="M86,55.29C82.35,39.2,73.73,33.91,72.8,31.89a24.07,24.07,0,0,1-2-4c.86,3.37.72,30.28.81,33.5a172.75,172.75,0,0,1-.39,18.21c.08,3.68.61,7.63,2.43,8.47l.11-.08A21.58,21.58,0,0,0,76,86.18l.08-.07c4.36-4,12.77-14.19,9.92-30.82"/></g></g></svg>